<?xml version="1.0" encoding="UTF-8"?>
<svg width="20px" height="20px" viewBox="0 0 20 20" version="1.1" xmlns="http://www.w3.org/2000/svg" xmlns:xlink="http://www.w3.org/1999/xlink">
    <title>Shape</title>
    <g stroke="none" stroke-width="1" fill="none" fill-rule="evenodd">
        <g fill="#FFB400" fill-rule="nonzero">
            <path d="M13.6658654,11.6826923 L17.34375,8.11298077 L12.2716346,7.36778846 L10,2.77644231 L7.72836538,7.36778846 L2.65625,8.11298077 L6.33413462,11.6826923 L5.45673077,16.7427885 L10,14.3509615 L14.53125,16.7427885 L13.6658654,11.6826923 Z M20,7.39182692 C20,7.56810898 19.8958333,7.76041667 19.6875,7.96875 L15.3245192,12.2235577 L16.3581731,18.2331731 C16.3661859,18.2892629 16.3701923,18.369391 16.3701923,18.4735577 C16.3701923,18.8741987 16.2059294,19.0745192 15.8774038,19.0745192 C15.7251602,19.0745192 15.5649038,19.0264423 15.3966346,18.9302885 L10,16.09375 L4.60336538,18.9302885 C4.42708333,19.0264423 4.26682692,19.0745192 4.12259615,19.0745192 C3.95432692,19.0745192 3.828125,19.0164263 3.74399038,18.9002404 C3.65985577,18.7840544 3.61778846,18.6418269 3.61778846,18.4735577 C3.61778846,18.4254808 3.62580129,18.3453525 3.64182692,18.2331731 L4.67548077,12.2235577 L0.300480769,7.96875 C0.100160256,7.75240385 0,7.56009615 0,7.39182692 C0,7.09535256 0.224358975,6.91105769 0.673076923,6.83894231 L6.70673077,5.96153846 L9.41105769,0.492788462 C9.56330129,0.164262821 9.75961538,0 10,0 C10.2403846,0 10.4366987,0.164262821 10.5889423,0.492788462 L13.2932692,5.96153846 L19.3269231,6.83894231 C19.775641,6.91105769 20,7.09535256 20,7.39182692 Z"></path>
        </g>
    </g>
</svg>